<?xml version="1.0" ?>
<!-- Uploaded to: SVG Repo, www.svgrepo.com, Generator: SVG Repo Mixer Tools -->
<svg width="800px" height="800px" viewBox="0 0 512 512" id="Layer_1" version="1.1" xml:space="preserve" xmlns="http://www.w3.org/2000/svg" xmlns:xlink="http://www.w3.org/1999/xlink">
<style type="text/css">
	.st0{fill:#3B4652;}
	.st1{fill:#2B79C2;}
</style>
<g>
<path class="st0" d="M257.3,371.7L257.3,371.7c46,0,86.1-25,107.5-62.3c10.4-18.1,16.3-39.1,16.3-61.4c0-14.8-2.6-29-7.4-42.2   c-0.2-0.6-0.5-1.3-0.7-1.9c-2.9-3.8-14.6-6.8-31.3-8.9c-23.3-3.1-56.3-4.5-88.8-4.3c-52.9,0.2-104.5,4.7-111.2,13.3   c-0.3,0.6-0.5,1.3-0.7,1.9c-4.8,13.2-7.4,27.4-7.4,42.2c0,22.4,5.9,43.3,16.3,61.4C171.2,346.6,211.4,371.7,257.3,371.7z    M305.2,228c17.4,0,31.4,14.1,31.4,31.4c0,17.4-14.1,31.4-31.4,31.4c-17.4,0-31.4-14.1-31.4-31.4C273.8,242,287.8,228,305.2,228z    M209.6,228c17.4,0,31.4,14.1,31.4,31.4c0,17.4-14.1,31.4-31.4,31.4c-17.4,0-31.4-14.1-31.4-31.4C178.1,242,192.2,228,209.6,228z"/>
<path class="st1" d="M121.3,205.8h4.9c0.5-1.6,1-3.2,1.6-4.8l0.1-0.2c0.3-0.7,0.5-1.4,0.8-2.2l0.7-1.8l1.2-1.6   c2.8-3.7,7.3-6.9,16.4-9.6c-3.9-12.5-5-25.5-3.4-38.7c-28.6,4.5-47.6,11.3-47.6,20.2v13.3C96.1,194.5,107.4,205.8,121.3,205.8z"/>
<path class="st1" d="M178.5,180.2c18.4-2,42.1-3.2,67.4-3.5V140c-17.8,0.1-35.4,0.7-52.1,1.8c-8.2,0.5-16.1,1.1-23.6,1.9   c-4.1,0.4-8.2,0.9-12.1,1.3c-2.2,13-1.4,25.5,2.6,37.6C165.7,181.7,171.6,180.9,178.5,180.2z"/>
<path class="st1" d="M322.1,142.5c-19.5-1.5-40.7-2.3-62.1-2.5v36.6c32.1,0.1,62.5,1.7,83.6,4.5c0.7,0.1,1.3,0.2,2,0.3   c3.6-11.7,4.3-23.8,2.2-36.3c-3.9-0.5-7.9-0.9-12.1-1.3C331.2,143.3,326.7,142.8,322.1,142.5z"/>
<path class="st1" d="M384.1,195.4l1.2,1.5l0.7,1.8c0.3,0.7,0.6,1.4,0.8,2.2l0,0.1c0.5,1.5,1.1,3,1.5,4.5   c12.1-1.9,21.4-12.3,21.4-24.9v-13.3c0-8.9-19-15.7-47.6-20.2c1.6,12.5,0.7,24.7-2.7,36.6C374.5,186.8,380.5,190.7,384.1,195.4z"/>
<path class="st0" d="M245.8,126L245.8,126l7.1-0.1l7,0.1h0.1c22.3,0.1,43.6,1,63.1,2.5c3.9,0.3,8.1,0.7,12.5,1.1V129   c0-22.8-9.3-43.5-24.2-58.5c-6-6-12.8-11-20.4-14.9c-3.2,18.3-19.1,32-38.1,32s-34.9-13.7-38.1-32c-26.5,13.8-44.6,41.5-44.6,73.4   v0.6c7.2-0.7,14.9-1.3,22.8-1.8C209.7,126.7,227.5,126.1,245.8,126z"/>
<path class="st0" d="M252.9,73.6c13.3,0,24.1-10.4,24.7-23.5c0-0.4,0-0.8,0-1.2c0-13.6-11.1-24.7-24.7-24.7   c-13.6,0-24.7,11.1-24.7,24.7c0,0.4,0,0.8,0,1.2C228.9,63.1,239.7,73.6,252.9,73.6z"/>
<path class="st1" d="M98.8,360c0,13.3,3.9,25.2,10.8,35.5l50.3-50.3v0c-7.7-7.6-14.5-16.3-20.2-25.7L98.8,360z"/>
<path class="st1" d="M170.3,354.6l-51.8,51.8c15.8,16.2,39.8,27.8,67.4,35c0.5,0.1,1,0.3,1.5,0.4l26.2-63.3   C197.9,373.2,183.2,365.1,170.3,354.6z"/>
<path class="st1" d="M257.4,385.7L257.4,385.7c-10.3,0-20.4-1.2-30.2-3.4l-25.9,62.5c35.9,7,76.2,7,112.1,0l-25.9-62.5   C277.7,384.5,267.6,385.7,257.4,385.7z"/>
<path class="st1" d="M301,378.5l26.2,63.3c28.3-7.2,52.9-19,68.9-35.4l-51.8-51.8C331.5,365.1,316.8,373.3,301,378.5z"/>
<path class="st1" d="M375,319.6c-5.7,9.4-12.5,18-20.2,25.7l50.2,50.2c6.9-10.4,10.8-22.2,10.8-35.5L375,319.6z"/>
<path class="st0" d="M182.5,455l-0.2,0c-31.5-8.2-57.1-21.6-73.8-38.7c0,0-0.1-0.1-0.1-0.1l-6-6.1l-3-4.5l-0.7-1.1v83.4h87.2v-32.1   l-1.5-0.3C183.8,455.3,183.2,455.2,182.5,455z"/>
</g>
</svg>